<svg width="26" height="26" viewBox="0 0 46 46" fill="none" xmlns="http://www.w3.org/2000/svg" role="img"><path d="M34.518 20.981L20.47 35.031c-2.256 2.255-5.835 2.784-8.497 1.026a6.698 6.698 0 01-1.096-10.347L27.611 8.975c1.345-1.345 3.512-1.68 5.06-.573a3.826 3.826 0 01.496 5.824L18.982 28.412a.957.957 0 01-1.351 0 .957.957 0 010-1.351l11.483-11.484a1.911 1.911 0 00-2.702-2.702L15.128 24.16c-1.768 1.767-2.112 4.649-.533 6.585a4.782 4.782 0 007.089.369l13.945-13.945c2.82-2.821 3.287-7.402.752-10.482-2.908-3.536-8.162-3.724-11.32-.567L8.505 22.677c-3.879 3.878-4.52 10.175-1.039 14.41 3.996 4.864 11.227 5.124 15.569.782L37.22 23.683a1.911 1.911 0 00-2.702-2.702z" fill="#B3B3B3"/></svg>
