<svg width="22" height="24" fill="none" xmlns="http://www.w3.org/2000/svg" role="img"><path d="M1.379 0c-.273 0-.54.088-.766.25a1.45 1.45 0 00-.505.664c-.103.27-.128.566-.072.852.056.285.19.546.386.749l8.637 9.215-8.637 9.216a1.47 1.47 0 00-.31.475 1.548 1.548 0 00-.01 1.135c.069.18.17.344.3.482.13.137.283.246.452.32a1.296 1.296 0 001.063-.012c.168-.077.32-.189.446-.33L11 13.801l8.637 9.215c.127.141.278.253.446.33a1.3 1.3 0 001.063.012 1.37 1.37 0 00.452-.32c.13-.138.231-.302.3-.482a1.55 1.55 0 00-.01-1.135 1.469 1.469 0 00-.31-.475l-8.637-9.216 8.637-9.215c.198-.206.334-.47.389-.76.055-.29.026-.59-.082-.861a1.445 1.445 0 00-.523-.662A1.309 1.309 0 0020.582 0c-.357.011-.695.17-.944.443L11 9.659 2.363.444a1.373 1.373 0 00-.45-.328 1.299 1.299 0 00-.534-.115z" fill="#fff"/></svg>
