<svg width="102" height="102" fill="none" xmlns="http://www.w3.org/2000/svg" role="img"><circle cx="51" cy="51" r="51" fill="url(#paint0_linear)"/><path d="M45 49.5a2.5 2.5 0 11-5 0 2.5 2.5 0 015 0zm10 0a2.5 2.5 0 11-5 0 2.5 2.5 0 015 0zm10 0a2.5 2.5 0 11-5 0 2.5 2.5 0 015 0z" fill="#fff"/><path d="M52.571 27C38.507 27 27 37.062 27 49.533c0 6.377 2.983 12.187 7.813 16.297-1.278 5.668-8.097 7.936-7.67 9.493 4.26 2.41 15.768-2.267 19.462-3.825 1.846.425 3.835.566 5.824.566C66.493 72.064 78 62.002 78 49.53 78 37.061 66.635 27 52.571 27z" stroke="#fff" stroke-width="4" stroke-miterlimit="10" stroke-linecap="round"/><defs><linearGradient id="paint0_linear" x1="51" y1="0" x2="51" y2="102" gradientUnits="userSpaceOnUse"><stop stop-color="#4EA5D2"/><stop offset=".904" stop-color="#42C7C7"/></linearGradient></defs></svg>
