<svg xmlns="http://www.w3.org/2000/svg" viewBox="0 0 100 100"><defs><style>.cls-1{fill:#b4b4b4;}</style></defs><g id="svg_5" data-name="svg 5"><path id="svg_4" data-name="svg 4" class="cls-1" d="M50,5A45,45,0,1,0,95,50,45,45,0,0,0,50,5Zm0,7.5A37.5,37.5,0,1,1,12.5,50,37.29,37.29,0,0,1,50,12.5ZM35,35a7.49,7.49,0,0,0-7.5,7.49h0A7.49,7.49,0,0,0,35,50h0a7.49,7.49,0,0,0,7.5-7.49h0A7.49,7.49,0,0,0,35,35Zm30,0a7.49,7.49,0,0,0-7.5,7.49h0A7.49,7.49,0,0,0,65,50h0a7.49,7.49,0,0,0,7.5-7.49h0A7.49,7.49,0,0,0,65,35ZM34.3,60.66l-6.09,4.23a26.58,26.58,0,0,0,43.59,0l-6.09-4.21A18.63,18.63,0,0,1,50,68.75a18.61,18.61,0,0,1-15.7-8.08Z"/></g></svg>
